<?xml version="1.0" standalone="no"?>
<svg version="1.0" xmlns="http://www.w3.org/2000/svg"
 width="100.000000pt" height="100.000000pt" viewBox="0 0 100.000000 100.000000"
 preserveAspectRatio="xMidYMid meet">

<g transform="translate(0.000000,100.000000) scale(0.100000,-0.100000)"
fill="#000000" stroke="none">
<path d="M427 994 c-11 -11 -8 -82 3 -89 6 -3 10 -46 10 -96 l0 -89 -69 0
c-69 0 -70 0 -73 28 -3 27 -4 27 -78 27 l-75 0 0 -375 0 -375 73 -3 c67 -3 74
-1 79 18 5 19 12 20 203 20 191 0 198 -1 203 -20 5 -19 12 -21 79 -18 l73 3 0
375 0 375 -75 0 c-74 0 -75 0 -78 -27 -3 -28 -4 -28 -73 -28 l-69 0 0 88 c0
49 5 93 11 99 6 6 9 28 7 49 l-3 39 -70 3 c-39 1 -74 0 -78 -4z m113 -43 c0
-6 -4 -13 -10 -16 -6 -4 -10 -65 -10 -151 0 -137 -1 -144 -20 -144 -19 0 -20
7 -20 144 0 86 -4 147 -10 151 -22 13 -8 25 30 25 22 0 40 -4 40 -9z m-280
-231 c0 -17 -7 -20 -40 -20 -33 0 -40 3 -40 20 0 17 7 20 40 20 33 0 40 -3 40
-20z m560 0 c0 -17 -7 -20 -40 -20 -33 0 -40 3 -40 20 0 17 7 20 40 20 33 0
40 -3 40 -20z m-380 -59 c0 -11 -4 -23 -10 -26 -5 -3 -10 -21 -10 -40 0 -29
-4 -34 -27 -37 -26 -3 -28 -7 -41 -84 -13 -79 -12 -82 12 -137 l25 -57 111 0
111 0 25 57 c24 55 25 58 12 137 -13 77 -15 81 -41 84 -23 3 -27 8 -27 37 0
19 -4 37 -10 40 -5 3 -10 15 -10 26 0 17 7 19 70 19 l70 0 0 -290 0 -290 -200
0 -200 0 0 290 0 290 70 0 c63 0 70 -2 70 -19z m-180 -21 c0 -17 -7 -20 -40
-20 -33 0 -40 3 -40 20 0 17 7 20 40 20 33 0 40 -3 40 -20z m560 0 c0 -17 -7
-20 -40 -20 -33 0 -40 3 -40 20 0 17 7 20 40 20 33 0 40 -3 40 -20z m-280 -60
c0 -17 -7 -20 -40 -20 -33 0 -40 3 -40 20 0 17 7 20 40 20 33 0 40 -3 40 -20z
m-280 -20 c0 -17 -7 -20 -40 -20 -33 0 -40 3 -40 20 0 17 7 20 40 20 33 0 40
-3 40 -20z m560 0 c0 -17 -7 -20 -40 -20 -33 0 -40 3 -40 20 0 17 7 20 40 20
33 0 40 -3 40 -20z m-220 -44 c0 -2 5 -27 10 -57 8 -43 7 -61 -6 -96 l-17 -43
-87 0 -87 0 -17 43 c-13 35 -14 53 -6 96 5 30 10 55 10 57 0 2 45 4 100 4 55
0 100 -2 100 -4z m-340 -36 c0 -17 -7 -20 -40 -20 -33 0 -40 3 -40 20 0 17 7
20 40 20 33 0 40 -3 40 -20z m560 0 c0 -17 -7 -20 -40 -20 -33 0 -40 3 -40 20
0 17 7 20 40 20 33 0 40 -3 40 -20z m-560 -80 c0 -17 -7 -20 -40 -20 -33 0
-40 3 -40 20 0 17 7 20 40 20 33 0 40 -3 40 -20z m560 0 c0 -17 -7 -20 -40
-20 -33 0 -40 3 -40 20 0 17 7 20 40 20 33 0 40 -3 40 -20z m-560 -80 c0 -17
-7 -20 -40 -20 -33 0 -40 3 -40 20 0 17 7 20 40 20 33 0 40 -3 40 -20z m560 0
c0 -17 -7 -20 -40 -20 -33 0 -40 3 -40 20 0 17 7 20 40 20 33 0 40 -3 40 -20z
m-560 -80 c0 -17 -7 -20 -40 -20 -33 0 -40 3 -40 20 0 17 7 20 40 20 33 0 40
-3 40 -20z m560 0 c0 -17 -7 -20 -40 -20 -33 0 -40 3 -40 20 0 17 7 20 40 20
33 0 40 -3 40 -20z m-560 -80 c0 -17 -7 -20 -40 -20 -33 0 -40 3 -40 20 0 17
7 20 40 20 33 0 40 -3 40 -20z m560 0 c0 -17 -7 -20 -40 -20 -33 0 -40 3 -40
20 0 17 7 20 40 20 33 0 40 -3 40 -20z m-560 -80 c0 -17 -7 -20 -40 -20 -33 0
-40 3 -40 20 0 17 7 20 40 20 33 0 40 -3 40 -20z m560 0 c0 -17 -7 -20 -40
-20 -33 0 -40 3 -40 20 0 17 7 20 40 20 33 0 40 -3 40 -20z"/>
<path d="M344 629 c-10 -17 13 -36 27 -22 12 12 4 33 -11 33 -5 0 -12 -5 -16
-11z"/>
<path d="M624 629 c-10 -17 13 -36 27 -22 12 12 4 33 -11 33 -5 0 -12 -5 -16
-11z"/>
<path d="M345 230 c-11 -18 10 -32 41 -28 40 4 38 32 -3 36 -17 2 -34 -2 -38
-8z"/>
<path d="M585 230 c-11 -18 10 -32 41 -28 40 4 38 32 -3 36 -17 2 -34 -2 -38
-8z"/>
<path d="M345 170 c-11 -18 10 -32 41 -28 40 4 38 32 -3 36 -17 2 -34 -2 -38
-8z"/>
<path d="M585 170 c-11 -18 10 -32 41 -28 40 4 38 32 -3 36 -17 2 -34 -2 -38
-8z"/>
<path d="M460 460 c-11 -11 -20 -29 -20 -40 0 -11 9 -29 20 -40 11 -11 29 -20
40 -20 26 0 60 34 60 60 0 11 -9 29 -20 40 -11 11 -29 20 -40 20 -11 0 -29 -9
-40 -20z m56 -31 c10 -17 -13 -36 -27 -22 -12 12 -4 33 11 33 5 0 12 -5 16
-11z"/>
</g>
</svg>
